<?xml version="1.0" encoding="utf-8"?>
<!-- Generator: Adobe Illustrator 26.2.1, SVG Export Plug-In . SVG Version: 6.00 Build 0)  -->
<svg version="1.1" id="Layer_1" xmlns="http://www.w3.org/2000/svg" xmlns:xlink="http://www.w3.org/1999/xlink" x="0px" y="0px"
	 viewBox="0 0 2000 2000" style="enable-background:new 0 0 2000 2000;" xml:space="preserve">
<style type="text/css">
	.st0{fill:#010101;}
</style>
<path class="st0" d="M858.03,899.96c0-42.2,0-83.43,0-125.78c7.72,0,15.18-0.01,22.63,0c63.67,0.08,127.34,0.13,191.02,0.27
	c53.23,0.11,106.45,0.14,159.68,0.59c24.38,0.21,48.95-0.33,73.09,2.45c32.59,3.76,51.37,28.22,50.84,61.93
	c-0.53,33.02-20.83,57.54-52.79,60.89c-21.88,2.29-44.06,2.13-66.11,2.35c-22.85,0.23-45.71-0.57-68.57-0.65
	c-50.42-0.18-100.83-0.03-151.25-0.33c-51.42-0.31-102.85-0.99-154.27-1.52C861.04,900.14,859.8,900.04,858.03,899.96z"/>
<path class="st0" d="M803.64,1104.02c0-43.15,0-84.37,0-127.53c10.78,0,21.36,0,31.94,0c36.63,0,73.27-0.03,109.9,0.01
	c36.09,0.04,72.21-0.58,108.28,0.44c48.61,1.38,76.33,47.81,55.24,91.6c-10.77,22.35-30.83,31.86-53.87,32.35
	C971.54,1102.64,887.93,1103.08,803.64,1104.02z"/>
<path class="st0" d="M763.05,1285.18c0-43.03,0-83.95,0-125.37c18.71,0,37.24-0.23,55.75,0.13c5.89,0.12,11.89,1.29,17.59,2.87
	c29.51,8.14,46.87,34.24,43.93,65.6c-3.06,32.73-24.07,54.54-56.39,56.54C803.88,1286.19,783.69,1285.18,763.05,1285.18z"/>
<path d="M1000,458.01c56.59,0,109.79,22.04,149.81,62.05l330.13,330.13c40.02,40.01,62.05,93.22,62.05,149.81
	s-22.04,109.79-62.05,149.81l-330.13,330.13c-40.01,40.01-93.22,62.05-149.81,62.05s-109.79-22.04-149.81-62.05l-330.13-330.13
	c-40.02-40.01-62.05-93.22-62.05-149.81s22.04-109.79,62.05-149.81l330.13-330.13C890.21,480.05,943.41,458.01,1000,458.01
	 M1000,367c-77.51,0-155.02,29.57-214.16,88.71L455.71,785.84c-118.28,118.28-118.28,310.04,0,428.32l330.13,330.13
	C844.98,1603.43,922.49,1633,1000,1633s155.02-29.57,214.16-88.71l330.13-330.13c118.28-118.28,118.28-310.04,0-428.32
	l-330.13-330.13C1155.02,396.57,1077.51,367,1000,367L1000,367z"/>
</svg>
